Coordinates
version=1
nRows=5
nColumns=40
inDegrees=yes

Units are S.I. units (second, meters, Newtons, ...)
Angles are in degrees.

endheader
time	pelvis_tilt	pelvis_list	pelvis_rotation	pelvis_tx	pelvis_ty	pelvis_tz	hip_flexion_r	hip_adduction_r	hip_rotation_r	knee_angle_r	knee_angle_r_beta	ankle_angle_r	subtalar_angle_r	mtp_angle_r	hip_flexion_l	hip_adduction_l	hip_rotation_l	knee_angle_l	knee_angle_l_beta	ankle_angle_l	subtalar_angle_l	mtp_angle_l	lumbar_extension	lumbar_bending	lumbar_rotation	arm_flex_r	arm_add_r	arm_rot_r	elbow_flex_r	pro_sup_r	wrist_flex_r	wrist_dev_r	arm_flex_l	arm_add_l	arm_rot_l	elbow_flex_l	pro_sup_l	wrist_flex_l	wrist_dev_l
     28.18828571	     -3.79568392	     -5.26397631	     -2.26954742	      1.09737199	      0.93156979	      0.43258611	     33.62337614	     -5.64199239	     -6.49410800	     63.21149089	     63.21149089	     -3.33269868	    -17.15342379	      3.08244608	     12.15426556	     -6.41746856	     -6.76803048	     23.22566623	     23.22566623	     16.06502947	    -14.34111310	      3.78864696	    -12.29624131	      5.75959779	      1.30353370	      4.95285202	    -16.15616618	    -14.55764099	     29.87856559	     47.06759397	      0.00000000	      0.00000000	     11.15713208	    -16.10428342	      8.05500493	     52.45328458	     45.18951405	      0.00000000	      0.00000000
     28.20157143	     -3.94078246	     -5.34136339	     -2.85817245	      1.09626370	      0.93220881	      0.43299693	     34.03107216	     -5.24268578	     -6.63931071	     60.41052326	     60.41052326	     -3.16004083	    -16.79913678	      0.88928140	     11.50991314	     -6.51315349	     -7.29002658	     22.48536403	     22.48536403	     15.90292519	    -14.39966242	      3.41987446	    -12.49604308	      5.85373543	      1.21643046	      5.24373148	    -15.98507935	    -15.97665705	     29.93091532	     47.12009025	      0.00000000	      0.00000000	     10.72030062	    -16.54382812	      7.82079611	     55.37153658	     45.32142087	      0.00000000	      0.00000000
     28.21485714	     -4.19183315	     -5.47080839	     -3.41621978	      1.09512936	      0.93271140	      0.43357410	     34.40338808	     -4.71861670	     -6.79878557	     57.21986280	     57.21986280	     -2.35700264	    -15.95651945	      0.61539632	     11.01005313	     -6.66958804	     -7.73944498	     21.80049112	     21.80049112	     15.91232639	    -14.38543733	      3.53323798	    -12.51655913	      6.05938846	      1.33814784	      5.34247349	    -16.05124612	    -16.07680976	     29.88728059	     47.12342636	      0.00000000	      0.00000000	     11.15634578	    -16.46075401	      7.72175745	     55.88236675	     45.35109556	      0.00000000	      0.00000000
     28.22814286	     -4.42503712	     -5.55058300	     -3.99255721	      1.09402565	      0.93302752	      0.43431870	     34.48015787	     -4.22712394	     -6.98693072	     53.40795792	     53.40795792	     -2.36511265	    -15.15260643	     -2.23670319	     10.46481263	     -6.78490733	     -8.25929394	     21.06815961	     21.06815961	     15.70703891	    -14.39406705	      3.00328492	    -12.63332037	      6.17103912	      1.31446192	      5.66565922	    -15.88203091	    -16.87852143	     29.89900689	     47.12687753	      0.00000000	      0.00000000	     10.92277078	    -16.62062493	      7.08735150	     58.13762935	     45.51983620	      0.00000000	      0.00000000
     28.24142857	     -4.87022088	     -5.68847662	     -4.52898180	      1.09275610	      0.93291136	      0.43529841	     34.68204197	     -3.56632865	     -7.11387505	     49.38327735	     49.38327735	     -1.55464313	    -13.80568896	     -2.31535486	     10.27552381	     -6.99401894	     -8.66167941	     20.55747920	     20.55747920	     15.76287634	    -14.41294986	      3.04202966	    -12.45643140	      6.39115998	      1.42033540	      5.86410571	    -15.76633993	    -16.87317951	     29.94795220	     47.12106571	      0.00000000	      0.00000000	     11.38348210	    -16.60071988	      7.01110003	     58.54507060	     45.54251897	      0.00000000	      0.00000000
